<svg width="40" height="40" viewBox="0 0 40 40" fill="none" xmlns="http://www.w3.org/2000/svg">
<g clip-path="url(#clip0_1_219)">
<circle cx="20" cy="20.0002" r="18.8571" fill="black"/>
<path fill-rule="evenodd" clip-rule="evenodd" d="M20 0C8.95409 0 0 8.95445 0 19.9996C0 31.0455 8.95409 40 20 40C31.0452 40 40 31.0456 40 19.9996C40 8.95445 31.0452 0 20 0ZM20.2336 31.6974C13.7871 31.6974 8.56571 26.4627 8.56571 19.9999C8.56571 13.5372 13.7871 8.30252 20.2336 8.30252C23.3841 8.30252 26.0162 9.46489 28.0367 11.3512L24.7471 14.6485V14.641C23.5223 13.4712 21.9691 12.8719 20.2336 12.8719C16.3833 12.8719 13.255 16.1324 13.255 19.9928C13.255 23.8524 16.3834 27.1209 20.2336 27.1209C23.7268 27.1209 26.1038 25.1176 26.593 22.3688H20.2336V17.8066H31.2084C31.3544 18.5887 31.4341 19.4077 31.4341 20.263C31.4342 26.9453 26.9719 31.6974 20.2336 31.6974Z" fill="white"/>
</g>
<defs>
<clipPath id="clip0_1_219">
<rect width="40" height="40" fill="white"/>
</clipPath>
</defs>
</svg>
