<svg width="40" height="40" viewBox="0 0 40 40" fill="none" xmlns="http://www.w3.org/2000/svg">
<g clip-path="url(#clip0_1_220)">
<path d="M20 0C14.6969 0 9.60625 2.10844 5.85938 5.85781C2.10863 9.60868 0.00103897 14.6956 0 20C0 25.3022 2.10938 30.3928 5.85938 34.1422C9.60625 37.8916 14.6969 40 20 40C25.3031 40 30.3937 37.8916 34.1406 34.1422C37.8906 30.3928 40 25.3022 40 20C40 14.6978 37.8906 9.60719 34.1406 5.85781C30.3937 2.10844 25.3031 0 20 0Z" fill="white"/>
<path d="M9.49253 20.4433C15.3225 17.863 19.2092 16.1617 21.1525 15.3398C26.7075 12.9928 27.8604 12.5852 28.6134 12.5714C28.779 12.5687 29.1476 12.6103 29.3882 12.8079C29.5882 12.9746 29.6444 13.2 29.6725 13.3582C29.6975 13.5163 29.7319 13.8766 29.7038 14.1579C29.4038 17.3706 28.101 25.1667 27.4386 28.7651C27.1606 30.2876 26.6076 30.7981 26.0733 30.8479C24.911 30.9565 24.03 30.0683 22.9052 29.3194C21.1462 28.147 20.1527 27.4175 18.4437 26.2737C16.4691 24.9518 17.7501 24.2251 18.8749 23.0378C19.1685 22.727 24.2862 17.9985 24.383 17.5696C24.3955 17.516 24.408 17.316 24.2893 17.2106C24.1737 17.1049 24.0019 17.1411 23.8769 17.1696C23.6988 17.2103 20.89 19.0985 15.4412 22.834C14.6445 23.3909 13.9228 23.6623 13.273 23.648C12.5606 23.6324 11.1859 23.2378 10.1643 22.9007C8.91453 22.4871 7.91787 22.2683 8.00535 21.5658C8.04909 21.2001 8.54586 20.8258 9.49253 20.4433Z" fill="black"/>
</g>
<defs>
<clipPath id="clip0_1_220">
<rect width="40" height="40" fill="white"/>
</clipPath>
</defs>
</svg>
