<svg width="40" height="40" viewBox="0 0 40 40" fill="none" xmlns="http://www.w3.org/2000/svg">
<g clip-path="url(#clip0_1_223)">
<ellipse cx="20" cy="21.1429" rx="15.4286" ry="15.4286" fill="black"/>
<path d="M20.5714 1.14307C9.84119 1.14307 1.14285 9.8414 1.14285 20.5716C1.14285 31.3019 9.84119 40.0002 20.5714 40.0002C31.3017 40.0002 40 31.3019 40 20.5716C40 9.8414 31.3017 1.14307 20.5714 1.14307ZM28.0433 23.0629C28.0433 23.0629 29.7615 24.7589 30.1845 25.5462C30.1967 25.5624 30.2027 25.5785 30.2068 25.5866C30.3788 25.876 30.4193 26.1007 30.3343 26.2687C30.1926 26.5479 29.7069 26.6856 29.5409 26.6977H26.5052C26.2948 26.6977 25.8536 26.6431 25.3193 26.2747C24.9084 25.9874 24.5037 25.5158 24.109 25.0564C23.5201 24.3724 23.0101 23.7814 22.4961 23.7814C22.4308 23.7813 22.3659 23.7915 22.3038 23.8118C21.9152 23.9372 21.4174 24.4918 21.4174 25.9691C21.4174 26.4306 21.0531 26.6957 20.7961 26.6957H19.4057C18.9321 26.6957 16.4651 26.5297 14.2794 24.2246C11.6039 21.4014 9.19559 15.7388 9.17535 15.6862C9.02357 15.3199 9.33726 15.1235 9.67928 15.1235H12.7454C13.1542 15.1235 13.2877 15.3725 13.3808 15.5931C13.4901 15.8501 13.8908 16.8721 14.5486 18.0216C15.6151 19.8957 16.2688 20.6566 16.793 20.6566C16.8913 20.6555 16.9878 20.6305 17.0743 20.5838C17.7583 20.2033 17.6308 17.7646 17.6005 17.2587C17.6005 17.1635 17.5984 16.1678 17.2483 15.6902C16.9974 15.3441 16.5704 15.2126 16.3113 15.164C16.4162 15.0193 16.5543 14.902 16.714 14.822C17.1836 14.5872 18.0295 14.5528 18.8694 14.5528H19.3369C20.2476 14.565 20.4824 14.6237 20.8123 14.7066C21.4801 14.8665 21.4943 15.2976 21.4356 16.7729C21.4174 17.1919 21.3992 17.6654 21.3992 18.224C21.3992 18.3454 21.3931 18.475 21.3931 18.6126C21.3729 19.3634 21.3486 20.2154 21.8788 20.5656C21.948 20.6089 22.0279 20.6321 22.1095 20.6324C22.2937 20.6324 22.8482 20.6324 24.3499 18.056C24.813 17.2268 25.2154 16.3651 25.554 15.4777C25.5844 15.4251 25.6734 15.2632 25.7787 15.2004C25.8563 15.1609 25.9425 15.1407 26.0296 15.1418H29.634C30.0267 15.1418 30.2958 15.2004 30.3464 15.3522C30.4355 15.5931 30.3302 16.3277 28.6849 18.5559L27.9502 19.5253C26.4587 21.4803 26.4587 21.5795 28.0433 23.0629Z" fill="white"/>
</g>
<defs>
<clipPath id="clip0_1_223">
<rect width="40" height="40" fill="white"/>
</clipPath>
</defs>
</svg>
